<?xml version="1.0" encoding="utf-8"?>
<!-- Generator: Adobe Illustrator 28.1.0, SVG Export Plug-In . SVG Version: 6.00 Build 0)  -->
<svg version="1.1" id="Capa_1" xmlns="http://www.w3.org/2000/svg" xmlns:xlink="http://www.w3.org/1999/xlink" x="0px" y="0px"
	 viewBox="0 0 1720.3 800" style="enable-background:new 0 0 1720.3 800;" xml:space="preserve">
<path d="M558,772.9h-7.9c-46.5-55.4-87.1-115.3-121.4-179.1c3.2-2.5,5.2-6.3,5.2-10.6c0-7.5-6.1-13.6-13.6-13.6h-4.3
	c-16.9-33.5-32.1-67.9-45.6-103.3c-0.7-1.7-1.3-3.4-1.9-5.2c7.2-0.3,13-6.2,13-13.5c0-7.5-6.1-13.6-13.6-13.6h-9.2
	c-34.5-100-54.2-204.5-58.9-311.5c7-0.5,12.5-6.4,12.5-13.5V68.2c0-7.4-6-13.5-13.4-13.6V13.6C299.1,6.1,293,0,285.5,0
	S272,6.1,272,13.6v41.1c-7.4,0.1-13.4,6.1-13.4,13.6V109c0,7.1,5.5,13,12.5,13.5c-4.7,107-24.4,211.5-58.9,311.5H203
	c-7.5,0-13.6,6.1-13.6,13.6c0,7.3,5.8,13.2,13,13.5c-0.6,1.7-1.3,3.5-1.9,5.2c-13.5,35.4-28.7,69.9-45.6,103.3h-4.3
	c-7.5,0-13.6,6.1-13.6,13.6c0,4.3,2,8.2,5.2,10.6C108,657.5,67.4,717.4,20.9,772.9h-7.3C6.1,772.9,0,779,0,786.4
	c0,7.5,6.1,13.6,13.6,13.6h13.6h109.1h12.1c7.5,0,13.6-6.1,13.6-13.6c0-6.8-5-12.4-11.4-13.4c6.7-68.6,64.7-122.3,135-122.3
	c70.3,0,128.3,53.8,135,122.4c-6.2,1.2-10.9,6.7-10.9,13.3c0,7.5,6.1,13.6,13.6,13.6h11.6h109.1h14.2c7.5,0,13.6-6.1,13.6-13.6
	C571.6,779,565.5,772.9,558,772.9z M285.5,251c9.8,62.3,24.7,123.4,44.7,183h-89.4C260.8,374.4,275.8,313.3,285.5,251z M225.9,475.9
	c1.9-4.9,3.7-9.8,5.5-14.8h108.3c1.8,4.9,3.6,9.9,5.5,14.8c12.2,32,25.8,63.2,40.7,93.7h-25.6c-12.1-23.8-23.3-48.4-33.6-73
	c-3.5-8.4-11.5-8.4-15-8.4h-54.8c-5.5,0-10.4,3.3-12.5,8.4c-10.2,24.6-21.5,49.2-33.6,73h-25.6C200.1,539.1,213.7,507.9,225.9,475.9
	z M330,569.6h-88.9c8.7-17.8,17.1-36,24.8-54.2c10.7,0,28.6,0,39.3,0C312.9,533.6,321.2,551.8,330,569.6z M447.8,772.9
	c-6.9-83.5-77-149.3-162.3-149.3s-155.3,65.8-162.3,149.3H56c44.1-54.8,82.7-113.8,115.4-176.2h47.9c0,0,0,0,0,0h132.6c0,0,0,0,0,0
	c0,0,0,0,0,0h47.6C432.4,659.1,471,718,515.1,772.9H447.8z"/>
<path d="M745.8,247.9c-10.8,16.2-27.4,27.8-53.6,27.8c-41.2,0-62.8-28.8-62.8-67.8c0-43.6,27.2-68.2,65.6-68.2
	c21,0,28.4,7.2,33.4,7.2c3.2,0,4.4-3.2,6.8-7.2h6v45.8h-6.8c-4.4-26.2-18.6-37.2-39.2-37.2c-28.8,0-45,22-45,57.6
	c0,40,19.6,57.2,47.8,57.2c18.4,0,31.8-7.2,43-19.4L745.8,247.9z"/>
<path d="M790,197.7h0.6c10.2-14.8,16.2-21.8,25.8-21.8c7.8,0,11.6,4.4,11.6,11.2c0,7.6-4.4,10.8-8.8,10.8c-6.6,0-10.6-6.8-13-6.8
	c-4.6,0-11,8.4-15.8,16.4v45.6c0,12.6,3.8,14.6,18.8,14.6v5.8h-50v-5.8c13.2,0,14.6-2.4,14.6-13.6v-55c0-7.2,0-10.8-7.2-10.8
	c-4,0-6.2,0.4-6.2,0.4V183l24.8-6h4.8V197.7z"/>
<path d="M914.3,247.7c-7.2,15.2-16.8,27.8-37.4,27.8c-24,0-42.6-17.4-42.6-49.6c0-33.4,18.8-49.4,42.2-49.4
	c21.8,0,36.2,15.8,37.2,43.8h-63.2c0,27.6,15.2,40.2,31.2,40.2c16.2,0,22.4-7.2,28.8-15.6L914.3,247.7z M894.9,212.9
	c-0.6-14.8-7.2-28.4-21.4-28.4c-13.6,0-21.6,9.8-23.2,28.4H894.9z"/>
<path d="M981.1,261.1c-9.4,8.2-16.6,13.8-29.4,13.8c-15.4,0-23.8-9.6-23.8-22.4c0-26.4,35.4-31.6,52.6-37v-8.8c0-17.4-6-24-18-24
	c-11.4,0-13.4,4.2-13.4,16.2c0,6.2-3.2,9.2-8.8,9.2c-4,0-8.4-3-8.4-9.6c0-11.2,13.4-22,35.2-22c21.8,0,30,10,30,30.8v45.4
	c0,8.2,1.8,9.8,6,9.8c3.8,0,6.6-2,9.4-5l3,3.2c-6.6,9.6-11.4,13.8-21.6,13.8c-8.8,0-10.8-4.6-12-13.4H981.1z M980.5,222.1
	c-18.2,4.6-35,10-35,25.6c0,10,5.8,16.2,14.4,16.2c6.6,0,13.8-3.2,20.6-8.8V222.1z"/>
<path d="M1053.3,254.1c0,11.2,2.6,13.6,15,13.6v5.8h-45.6v-5.8c12.6,0,14-2.4,14-14.4v-56c0-7.2-2.8-9-8.4-9c-3,0-5.4,0.4-5.4,0.4
	v-5.8l25-5.8h4.8v16.2h0.8c10.8-9.4,20-16.8,33.6-16.8c11.4,0,18.2,7,22.2,16.6h0.8c11-10.8,21.2-16.6,31.8-16.6
	c15.6,0,25.8,8.8,25.8,33v40.8c0,12.6,0.6,17.4,14.4,17.4v5.8h-45.2v-5.8c13.6,0,14.2-5.2,14.2-17.4v-38.4
	c0-18.2-7.8-22.6-17.2-22.6c-8.2,0-16.4,6.8-23,12.4v48.6c0,13.8,1,17.4,15.4,17.4v5.8h-47.4v-5.8c14.2,0,15.4-3.4,15.4-17.4v-39.6
	c0-17-6.8-21.4-16-21.4c-10.4,0-19.2,7.4-25,12.8V254.1z"/>
<path d="M1329.8,224.3c0,33.6-18.4,51.2-44.4,51.2c-28,0-44.8-18-44.8-50.4c0-29,17.8-48.6,44.8-48.6
	C1312.8,176.4,1329.8,194.6,1329.8,224.3z M1259.2,222.5c0,31.8,9.8,45.2,27,45c16.4,0,25.2-9.6,25.2-42.2c0-24.6-9-41.2-26.8-41.2
	C1269.4,184,1259.2,196.8,1259.2,222.5z"/>
<path d="M1357,179.8c0-16.2,1.2-25.2,6.4-34.4c5.4-9.2,12.6-14.6,26.6-14.6c13,0,22.4,5,22.4,14c0,5.8-3.6,8.6-8.2,8.6
	c-10,0-11-15.2-21-15.2c-7.4,0-9.6,6-9.6,22.8v18.8h24.4v8.4h-24.4v61.4c0,15.6,3.8,18,20.4,18v5.8h-53.8v-5.8
	c14.6,0,16.8-2.4,16.8-18v-61.4h-15.2v-8.4H1357z"/>
<path d="M1517.4,258.7c-7.8,10.8-12,16.8-24.8,16.8c-13.4,0-19.2-7.2-19.2-25.2v-62h-11v-4.6c9.4-5.8,15.4-15.2,22.6-32.2h5.2
	l-0.2,28.4h22.6v8.4H1490v56.4c0,14.2,1.8,19,9.6,19c6.4,0,9-2.6,14-8.2L1517.4,258.7z"/>
<path d="M1554.6,254.1c0,10.4,1,13.6,14.8,13.6v5.8H1524v-5.8c10.4,0,14-1.6,14-12.8V152.4c0-7-4.4-8-9.8-8c-3.2,0-5.8,0.4-5.8,0.4
	v-5.6l26.8-7h5.4v60.6h0.6c12.6-11.8,21.8-16.4,32.4-16.4c23,0,26.8,20.6,26.8,37v39.8c0,10.6,2.2,14.4,14.8,14.4v5.8h-46v-5.8
	c13.8,0,14.6-4,14.6-13.6v-34.6c0-16.4-2.2-30.2-18.4-30.2c-7.8,0-15,3.4-24.8,12.4V254.1z"/>
<path d="M1720.3,247.7c-7.2,15.2-16.8,27.8-37.4,27.8c-24,0-42.6-17.4-42.6-49.6c0-33.4,18.8-49.4,42.2-49.4
	c21.8,0,36.2,15.8,37.2,43.8h-63.2c0,27.6,15.2,40.2,31.2,40.2c16.2,0,22.4-7.2,28.8-15.6L1720.3,247.7z M1700.9,212.9
	c-0.6-14.8-7.2-28.4-21.4-28.4c-13.6,0-21.6,9.8-23.2,28.4H1700.9z"/>
<path d="M867.7,584.2c-23.7,35.6-60.2,61.1-117.8,61.1c-90.6,0-138.1-63.3-138.1-149.1c0-95.9,59.8-149.9,144.2-149.9
	c46.2,0,62.4,15.8,73.4,15.8c7,0,9.7-7,15-15.8h13.2V447h-14.9c-9.7-57.6-40.9-81.8-86.2-81.8c-63.3,0-98.9,48.4-98.9,126.6
	c0,87.9,43.1,125.8,105.1,125.8c40.5,0,69.9-15.8,94.5-42.7L867.7,584.2z"/>
<path d="M964.9,473.8h1.3c22.4-32.5,35.6-47.9,56.7-47.9c17.1,0,25.5,9.7,25.5,24.6c0,16.7-9.7,23.7-19.3,23.7
	c-14.5,0-23.3-14.9-28.6-14.9c-10.1,0-24.2,18.5-34.7,36.1v100.3c0,27.7,8.4,32.1,41.3,32.1v12.8H897.2v-12.8
	c29,0,32.1-5.3,32.1-29.9V476.9c0-15.8,0-23.7-15.8-23.7c-8.8,0-13.6,0.9-13.6,0.9v-12.3l54.5-13.2h10.6V473.8z"/>
<path d="M1238,583.7c-15.8,33.4-36.9,61.1-82.2,61.1c-52.8,0-93.7-38.3-93.7-109c0-73.4,41.3-108.6,92.8-108.6
	c47.9,0,79.6,34.7,81.8,96.3h-139c0,60.7,33.4,88.4,68.6,88.4c35.6,0,49.2-15.8,63.3-34.3L1238,583.7z M1195.3,507.2
	c-1.3-32.5-15.8-62.4-47.1-62.4c-29.9,0-47.5,21.5-51,62.4H1195.3z"/>
<path d="M1328.5,465.4h1.3c21.1-24.6,42.2-38.3,68.2-38.3c43.5,0,73.9,40.9,73.9,98.5c0,74.8-43.5,119.2-96.3,119.2
	c-16.7,0-31.7-3.5-44.4-12.3h-1.8v57.6c0,28.6,8.4,34.3,42.7,34.3v12.8h-111.2v-12.3c27.7,0,32.1-7.5,32.1-32.1V475.1
	c0-16.7-2.2-22.4-16.7-22.4c-5.7,0-14.1,0.9-14.1,0.9v-12.8l55.4-12.3h11V465.4z M1329.4,598.7c8.4,9.2,23.7,29,48.4,29
	c30.8,0,54.1-28.6,54.1-89.7c0-55.4-19.3-80.9-51.9-80.9c-23.3,0-42.2,15.8-50.6,26.8V598.7z"/>
<path d="M1678.1,583.7c-15.8,33.4-36.9,61.1-82.2,61.1c-52.8,0-93.7-38.3-93.7-109c0-73.4,41.3-108.6,92.8-108.6
	c47.9,0,79.6,34.7,81.8,96.3h-139c0,60.7,33.4,88.4,68.6,88.4c35.6,0,49.2-15.8,63.3-34.3L1678.1,583.7z M1635.5,507.2
	c-1.3-32.5-15.8-62.4-47.1-62.4c-29.9,0-47.5,21.5-51,62.4H1635.5z"/>
</svg>
